<svg width="357pt" height="340pt" viewBox="0.00 0.00 357.00 340.00" xmlns="http://www.w3.org/2000/svg" xmlns:xlink="http://www.w3.org/1999/xlink">
<g id="graph1" class="graph" transform="scale(1 1) rotate(0) translate(4 336)">
<title>Tree</title>
<polygon fill="white" stroke="white" points="-4,5 -4,-336 354,-336 354,5 -4,5"></polygon>
<!-- 0 -->
<g id="node1" class="node"><title>0</title>
<polygon fill="none" stroke="none" points="212.205,-332 65.7953,-332 53.7953,-320 53.7953,-252 65.7953,-240 212.205,-240 224.205,-252 224.205,-320 212.205,-332"></polygon>
<path fill="none" stroke="none" d="M65.7953,-332C59.7953,-332 53.7953,-326 53.7953,-320"></path>
<path fill="none" stroke="none" d="M53.7953,-252C53.7953,-246 59.7953,-240 65.7953,-240"></path>
<path fill="none" stroke="none" d="M212.205,-240C218.205,-240 224.205,-246 224.205,-252"></path>
<path fill="none" stroke="none" d="M224.205,-320C224.205,-326 218.205,-332 212.205,-332"></path>
<polyline fill="none" stroke="black" points="212.205,-332 65.7953,-332 "></polyline>
<path fill="none" stroke="black" d="M65.7953,-332C59.7953,-332 53.7953,-326 53.7953,-320"></path>
<polyline fill="none" stroke="black" points="53.7953,-320 53.7953,-252 "></polyline>
<path fill="none" stroke="black" d="M53.7953,-252C53.7953,-246 59.7953,-240 65.7953,-240"></path>
<polyline fill="none" stroke="black" points="65.7953,-240 212.205,-240 "></polyline>
<path fill="none" stroke="black" d="M212.205,-240C218.205,-240 224.205,-246 224.205,-252"></path>
<polyline fill="none" stroke="black" points="224.205,-252 224.205,-320 "></polyline>
<path fill="none" stroke="black" d="M224.205,-320C224.205,-326 218.205,-332 212.205,-332"></path>
<text text-anchor="middle" x="139" y="-315.4" font-family="Helvetica,sans-Serif" font-size="14.00">petal length (cm) &lt;= 2.45</text>
<text text-anchor="middle" x="139" y="-298.6" font-family="Helvetica,sans-Serif" font-size="14.00">gini = 0.667</text>
<text text-anchor="middle" x="139" y="-281.8" font-family="Helvetica,sans-Serif" font-size="14.00">samples = 150</text>
<text text-anchor="middle" x="139" y="-265" font-family="Helvetica,sans-Serif" font-size="14.00">value = [50, 50, 50]</text>
<text text-anchor="middle" x="139" y="-248.2" font-family="Helvetica,sans-Serif" font-size="14.00">class = setosa</text>
</g>
<!-- 1 -->
<g id="node2" class="node"><title>1</title>
<polygon fill="#e58139" stroke="#e58139" points="106.414,-195.7 11.5863,-195.7 -0.41366,-183.7 -0.41366,-132.3 11.5863,-120.3 106.414,-120.3 118.414,-132.3 118.414,-183.7 106.414,-195.7"></polygon>
<path fill="#e58139" stroke="#e58139" d="M11.5863,-195.7C5.58634,-195.7 -0.41366,-189.7 -0.41366,-183.7"></path>
<path fill="#e58139" stroke="#e58139" d="M-0.41366,-132.3C-0.41366,-126.3 5.58634,-120.3 11.5863,-120.3"></path>
<path fill="#e58139" stroke="#e58139" d="M106.414,-120.3C112.414,-120.3 118.414,-126.3 118.414,-132.3"></path>
<path fill="#e58139" stroke="#e58139" d="M118.414,-183.7C118.414,-189.7 112.414,-195.7 106.414,-195.7"></path>
<polyline fill="none" stroke="black" points="106.414,-195.7 11.5863,-195.7 "></polyline>
<path fill="none" stroke="black" d="M11.5863,-195.7C5.58634,-195.7 -0.41366,-189.7 -0.41366,-183.7"></path>
<polyline fill="none" stroke="black" points="-0.41366,-183.7 -0.41366,-132.3 "></polyline>
<path fill="none" stroke="black" d="M-0.41366,-132.3C-0.41366,-126.3 5.58634,-120.3 11.5863,-120.3"></path>
<polyline fill="none" stroke="black" points="11.5863,-120.3 106.414,-120.3 "></polyline>
<path fill="none" stroke="black" d="M106.414,-120.3C112.414,-120.3 118.414,-126.3 118.414,-132.3"></path>
<polyline fill="none" stroke="black" points="118.414,-132.3 118.414,-183.7 "></polyline>
<path fill="none" stroke="black" d="M118.414,-183.7C118.414,-189.7 112.414,-195.7 106.414,-195.7"></path>
<text text-anchor="middle" x="59" y="-179" font-family="Helvetica,sans-Serif" font-size="14.00">gini = 0.0</text>
<text text-anchor="middle" x="59" y="-162.2" font-family="Helvetica,sans-Serif" font-size="14.00">samples = 50</text>
<text text-anchor="middle" x="59" y="-145.4" font-family="Helvetica,sans-Serif" font-size="14.00">value = [50, 0, 0]</text>
<text text-anchor="middle" x="59" y="-128.6" font-family="Helvetica,sans-Serif" font-size="14.00">class = setosa</text>
</g>
<!-- 0&#45;&gt;1 -->
<g id="edge2" class="edge"><title>0-&gt;1</title>
<path fill="none" stroke="black" d="M110.344,-239.867C103.056,-228.388 95.2196,-216.046 87.9183,-204.546"></path>
<polygon fill="black" stroke="black" points="90.7719,-202.511 82.457,-195.945 84.8624,-206.263 90.7719,-202.511"></polygon>
<text text-anchor="middle" x="77.0087" y="-216.144" font-family="Helvetica,sans-Serif" font-size="14.00">True</text>
</g>
<!-- 2 -->
<g id="node4" class="node"><title>2</title>
<polygon fill="none" stroke="none" points="291.109,-204 148.891,-204 136.891,-192 136.891,-124 148.891,-112 291.109,-112 303.109,-124 303.109,-192 291.109,-204"></polygon>
<path fill="none" stroke="none" d="M148.891,-204C142.891,-204 136.891,-198 136.891,-192"></path>
<path fill="none" stroke="none" d="M136.891,-124C136.891,-118 142.891,-112 148.891,-112"></path>
<path fill="none" stroke="none" d="M291.109,-112C297.109,-112 303.109,-118 303.109,-124"></path>
<path fill="none" stroke="none" d="M303.109,-192C303.109,-198 297.109,-204 291.109,-204"></path>
<polyline fill="none" stroke="black" points="291.109,-204 148.891,-204 "></polyline>
<path fill="none" stroke="black" d="M148.891,-204C142.891,-204 136.891,-198 136.891,-192"></path>
<polyline fill="none" stroke="black" points="136.891,-192 136.891,-124 "></polyline>
<path fill="none" stroke="black" d="M136.891,-124C136.891,-118 142.891,-112 148.891,-112"></path>
<polyline fill="none" stroke="black" points="148.891,-112 291.109,-112 "></polyline>
<path fill="none" stroke="black" d="M291.109,-112C297.109,-112 303.109,-118 303.109,-124"></path>
<polyline fill="none" stroke="black" points="303.109,-124 303.109,-192 "></polyline>
<path fill="none" stroke="black" d="M303.109,-192C303.109,-198 297.109,-204 291.109,-204"></path>
<text text-anchor="middle" x="220" y="-187.4" font-family="Helvetica,sans-Serif" font-size="14.00">petal width (cm) &lt;= 1.75</text>
<text text-anchor="middle" x="220" y="-170.6" font-family="Helvetica,sans-Serif" font-size="14.00">gini = 0.5</text>
<text text-anchor="middle" x="220" y="-153.8" font-family="Helvetica,sans-Serif" font-size="14.00">samples = 100</text>
<text text-anchor="middle" x="220" y="-137" font-family="Helvetica,sans-Serif" font-size="14.00">value = [0, 50, 50]</text>
<text text-anchor="middle" x="220" y="-120.2" font-family="Helvetica,sans-Serif" font-size="14.00">class = versicolor</text>
</g>
<!-- 0&#45;&gt;2 -->
<g id="edge4" class="edge"><title>0-&gt;2</title>
<path fill="none" stroke="black" d="M168.014,-239.867C173.656,-231.091 179.622,-221.811 185.422,-212.788"></path>
<polygon fill="black" stroke="black" points="188.453,-214.546 190.916,-204.241 182.565,-210.761 188.453,-214.546"></polygon>
<text text-anchor="middle" x="196.227" y="-224.471" font-family="Helvetica,sans-Serif" font-size="14.00">False</text>
</g>
<!-- 3 -->
<g id="node6" class="node"><title>3</title>
<polygon fill="#39e581" fill-opacity="0.898039" stroke="#39e581" stroke-opacity="0.898039" points="199.297,-75.7003 100.703,-75.7003 88.7033,-63.7003 88.7033,-12.2997 100.703,-0.299733 199.297,-0.299733 211.297,-12.2997 211.297,-63.7003 199.297,-75.7003"></polygon>
<path fill="#39e581" fill-opacity="0.898039" stroke="#39e581" stroke-opacity="0.898039" d="M100.703,-75.7003C94.7033,-75.7003 88.7033,-69.7003 88.7033,-63.7003"></path>
<path fill="#39e581" fill-opacity="0.898039" stroke="#39e581" stroke-opacity="0.898039" d="M88.7033,-12.2997C88.7033,-6.29973 94.7033,-0.299733 100.703,-0.299733"></path>
<path fill="#39e581" fill-opacity="0.898039" stroke="#39e581" stroke-opacity="0.898039" d="M199.297,-0.299733C205.297,-0.299733 211.297,-6.29973 211.297,-12.2997"></path>
<path fill="#39e581" fill-opacity="0.898039" stroke="#39e581" stroke-opacity="0.898039" d="M211.297,-63.7003C211.297,-69.7003 205.297,-75.7003 199.297,-75.7003"></path>
<polyline fill="none" stroke="black" points="199.297,-75.7003 100.703,-75.7003 "></polyline>
<path fill="none" stroke="black" d="M100.703,-75.7003C94.7033,-75.7003 88.7033,-69.7003 88.7033,-63.7003"></path>
<polyline fill="none" stroke="black" points="88.7033,-63.7003 88.7033,-12.2997 "></polyline>
<path fill="none" stroke="black" d="M88.7033,-12.2997C88.7033,-6.29973 94.7033,-0.299733 100.703,-0.299733"></path>
<polyline fill="none" stroke="black" points="100.703,-0.299733 199.297,-0.299733 "></polyline>
<path fill="none" stroke="black" d="M199.297,-0.299733C205.297,-0.299733 211.297,-6.29973 211.297,-12.2997"></path>
<polyline fill="none" stroke="black" points="211.297,-12.2997 211.297,-63.7003 "></polyline>
<path fill="none" stroke="black" d="M211.297,-63.7003C211.297,-69.7003 205.297,-75.7003 199.297,-75.7003"></path>
<text text-anchor="middle" x="150" y="-59" font-family="Helvetica,sans-Serif" font-size="14.00">gini = 0.168</text>
<text text-anchor="middle" x="150" y="-42.2" font-family="Helvetica,sans-Serif" font-size="14.00">samples = 54</text>
<text text-anchor="middle" x="150" y="-25.4" font-family="Helvetica,sans-Serif" font-size="14.00">value = [0, 49, 5]</text>
<text text-anchor="middle" x="150" y="-8.6" font-family="Helvetica,sans-Serif" font-size="14.00">class = versicolor</text>
</g>
<!-- 2&#45;&gt;3 -->
<g id="edge6" class="edge"><title>2-&gt;3</title>
<path fill="none" stroke="black" d="M193.136,-111.716C187.874,-102.844 182.351,-93.5344 177.081,-84.6509"></path>
<polygon fill="black" stroke="black" points="180.027,-82.7563 171.914,-75.9414 174.006,-86.3277 180.027,-82.7563"></polygon>
</g>
<!-- 4 -->
<g id="node8" class="node"><title>4</title>
<polygon fill="#8139e5" fill-opacity="0.976471" stroke="#8139e5" stroke-opacity="0.976471" points="337.414,-75.7003 242.586,-75.7003 230.586,-63.7003 230.586,-12.2997 242.586,-0.299733 337.414,-0.299733 349.414,-12.2997 349.414,-63.7003 337.414,-75.7003"></polygon>
<path fill="#8139e5" fill-opacity="0.976471" stroke="#8139e5" stroke-opacity="0.976471" d="M242.586,-75.7003C236.586,-75.7003 230.586,-69.7003 230.586,-63.7003"></path>
<path fill="#8139e5" fill-opacity="0.976471" stroke="#8139e5" stroke-opacity="0.976471" d="M230.586,-12.2997C230.586,-6.29973 236.586,-0.299733 242.586,-0.299733"></path>
<path fill="#8139e5" fill-opacity="0.976471" stroke="#8139e5" stroke-opacity="0.976471" d="M337.414,-0.299733C343.414,-0.299733 349.414,-6.29973 349.414,-12.2997"></path>
<path fill="#8139e5" fill-opacity="0.976471" stroke="#8139e5" stroke-opacity="0.976471" d="M349.414,-63.7003C349.414,-69.7003 343.414,-75.7003 337.414,-75.7003"></path>
<polyline fill="none" stroke="black" points="337.414,-75.7003 242.586,-75.7003 "></polyline>
<path fill="none" stroke="black" d="M242.586,-75.7003C236.586,-75.7003 230.586,-69.7003 230.586,-63.7003"></path>
<polyline fill="none" stroke="black" points="230.586,-63.7003 230.586,-12.2997 "></polyline>
<path fill="none" stroke="black" d="M230.586,-12.2997C230.586,-6.29973 236.586,-0.299733 242.586,-0.299733"></path>
<polyline fill="none" stroke="black" points="242.586,-0.299733 337.414,-0.299733 "></polyline>
<path fill="none" stroke="black" d="M337.414,-0.299733C343.414,-0.299733 349.414,-6.29973 349.414,-12.2997"></path>
<polyline fill="none" stroke="black" points="349.414,-12.2997 349.414,-63.7003 "></polyline>
<path fill="none" stroke="black" d="M349.414,-63.7003C349.414,-69.7003 343.414,-75.7003 337.414,-75.7003"></path>
<text text-anchor="middle" x="290" y="-59" font-family="Helvetica,sans-Serif" font-size="14.00">gini = 0.043</text>
<text text-anchor="middle" x="290" y="-42.2" font-family="Helvetica,sans-Serif" font-size="14.00">samples = 46</text>
<text text-anchor="middle" x="290" y="-25.4" font-family="Helvetica,sans-Serif" font-size="14.00">value = [0, 1, 45]</text>
<text text-anchor="middle" x="290" y="-8.6" font-family="Helvetica,sans-Serif" font-size="14.00">class = virginica</text>
</g>
<!-- 2&#45;&gt;4 -->
<g id="edge8" class="edge"><title>2-&gt;4</title>
<path fill="none" stroke="black" d="M246.864,-111.716C252.126,-102.844 257.649,-93.5344 262.919,-84.6509"></path>
<polygon fill="black" stroke="black" points="265.994,-86.3277 268.086,-75.9414 259.973,-82.7563 265.994,-86.3277"></polygon>
</g>
</g>
</svg>